<?xml version="1.0" encoding="UTF-8" standalone="no"?>
<!-- Created with Inkscape (http://www.inkscape.org/) -->

<svg
   xmlns:dc="http://purl.org/dc/elements/1.1/"
   xmlns:cc="http://creativecommons.org/ns#"
   xmlns:rdf="http://www.w3.org/1999/02/22-rdf-syntax-ns#"
   xmlns:svg="http://www.w3.org/2000/svg"
   xmlns="http://www.w3.org/2000/svg"
   xmlns:xlink="http://www.w3.org/1999/xlink"
   xmlns:sodipodi="http://sodipodi.sourceforge.net/DTD/sodipodi-0.dtd"
   xmlns:inkscape="http://www.inkscape.org/namespaces/inkscape"
   width="192"
   height="192"
   id="svg3917"
   version="1.1"
   inkscape:version="0.48.4 r9939"
   sodipodi:docname="icon_2.svg">
  <defs
     id="defs3919">
    <linearGradient
       id="linearGradient4654">
      <stop
         style="stop-color:#ffffff;stop-opacity:0.40000001;"
         offset="0"
         id="stop4666" />
      <stop
         style="stop-color:#ffffff;stop-opacity:0;"
         offset="1"
         id="stop4658" />
    </linearGradient>
    <clipPath
       clipPathUnits="userSpaceOnUse"
       id="clipPath3016">
      <rect
         style="fill:#3e2723;fill-opacity:0.4;fill-rule:evenodd;stroke:none"
         id="rect3018"
         width="176"
         height="64"
         x="0"
         y="924.36218" />
    </clipPath>
    <filter
       inkscape:collect="always"
       id="filter4646">
      <feGaussianBlur
         inkscape:collect="always"
         stdDeviation="5.0035743"
         id="feGaussianBlur4648" />
    </filter>
    <radialGradient
       inkscape:collect="always"
       xlink:href="#linearGradient4654"
       id="radialGradient4660"
       cx="-36.428572"
       cy="38.964285"
       fx="-36.428572"
       fy="38.964285"
       r="24.785715"
       gradientTransform="matrix(7.9058825,0,0,7.8717722,288,553.64424)"
       gradientUnits="userSpaceOnUse" />
    <radialGradient
       inkscape:collect="always"
       xlink:href="#linearGradient4654"
       id="radialGradient4821"
       gradientUnits="userSpaceOnUse"
       gradientTransform="matrix(7.9058825,0,0,7.8717722,288,-306.71794)"
       cx="-36.428572"
       cy="38.964285"
       fx="-36.428572"
       fy="38.964285"
       r="24.785715" />
  </defs>
  <sodipodi:namedview
     id="base"
     pagecolor="#ffffff"
     bordercolor="#666666"
     borderopacity="1.0"
     inkscape:pageopacity="0.0"
     inkscape:pageshadow="2"
     inkscape:zoom="2.8"
     inkscape:cx="158.44021"
     inkscape:cy="94.968879"
     inkscape:document-units="px"
     inkscape:current-layer="layer1"
     showgrid="false"
     inkscape:window-width="1600"
     inkscape:window-height="850"
     inkscape:window-x="0"
     inkscape:window-y="149"
     inkscape:window-maximized="1"
     showguides="true"
     inkscape:guide-bbox="true" />
  <metadata
     id="metadata3922">
    <rdf:RDF>
      <cc:Work
         rdf:about="">
        <dc:format>image/svg+xml</dc:format>
        <dc:type
           rdf:resource="http://purl.org/dc/dcmitype/StillImage" />
        <dc:title />
      </cc:Work>
    </rdf:RDF>
  </metadata>
  <g
     inkscape:label="Layer 1"
     inkscape:groupmode="layer"
     id="layer1"
     transform="translate(0,-860.36218)">
    <rect
       style="fill:#384336;fill-opacity:0.20192309;fill-rule:evenodd;stroke:none"
       id="rect4662"
       width="192"
       height="192"
       x="0"
       y="860.36218" />
    <path
       style="fill:#212121;fill-opacity:0.2;stroke:none;filter:url(#filter4646);opacity:1"
       d="m 34.843751,879.58076 c -5.878503,0.30093 -11.647561,2.83591 -15.8125,7 C 14.58864,891.02246 12.00196,897.26734 12,903.54951 l 0,56.59377 c -10e-4,6.2828 2.58994,12.5248 7.031251,16.9687 l 62.218751,62.21892 c 4.44259,4.4429 10.68571,7.0307 16.96875,7.0313 6.283048,7e-4 12.525098,-2.5894 16.968748,-7.0313 l 56.56251,-56.56262 c 4.44273,-4.4428 7.03061,-10.6858 7.03125,-16.9688 6.4e-4,-6.283 -2.58939,-12.5251 -7.03125,-16.96872 l -62.21876,-62.21875 c -4.44272,-4.4425 -10.685948,-7.03102 -16.968748,-7.03125 l -56.562501,0 c -0.392634,5e-5 -0.76435,-0.0201 -1.15625,0 z m 1.15625,11.96875 c 3.07107,3.5e-4 6.157094,1.18773 8.500001,3.53125 4.685814,4.68677 4.686736,12.28294 0,16.96875 -4.686771,4.68582 -12.282936,4.68704 -16.968751,0 -4.685815,-4.68676 -4.686745,-12.28293 0,-16.96875 2.343381,-2.3429 5.397681,-3.53159 8.46875,-3.53125 z m 56.406251,0 c 3.200727,-0.0408 6.397386,1.26324 8.656248,3.53125 l 62.21876,62.21872 c 2.22062,2.2216 3.5,5.359 3.5,8.5 0,3.1411 -1.27938,6.2472 -3.5,8.4688 l -56.56251,56.56262 c -2.22265,2.2299 -5.35155,3.5313 -8.499998,3.5313 -3.148451,0 -6.277354,-1.3014 -8.5,-3.5313 L 27.500001,968.61198 c -2.220619,-2.2215 -3.5,-5.3276 -3.5,-8.4687 0,-3.1411 1.279381,-6.2785 3.5,-8.5 l 56.593751,-56.56252 c 2.177915,-2.18701 5.226417,-3.48205 8.3125,-3.53125 z"
       id="path3796-0"
       inkscape:connector-curvature="0" />
    <path
       inkscape:connector-curvature="0"
       id="path3796"
       style="fill:#f44336;fill-opacity:1;stroke:none"
       d="m 44.487533,906.04927 c -4.686771,4.68582 -12.284748,4.68504 -16.970563,-0.002 -4.685814,-4.68676 -4.685044,-12.28474 0.0017,-16.97056 4.686763,-4.68581 12.284749,-4.68504 16.970563,0.002 4.685815,4.68677 4.685037,12.28475 -0.0017,16.97056 z m 65.056417,-25.44922 c -4.44272,-4.4425 -10.687054,-7.02837 -16.969854,-7.0286 l -56.568539,-0.006 c -6.282149,6.6e-4 -12.525384,2.58671 -16.967987,7.02841 -4.442611,4.4417 -7.029909,10.68439 -7.03187,16.96656 L 12,954.12895 c -0.0011,6.28286 2.583728,12.52747 7.02504,16.97138 l 62.219063,62.23177 c 4.44259,4.4429 10.686853,7.0295 16.969893,7.0301 6.283044,7e-4 12.527644,-2.5848 16.971294,-7.0267 l 56.57432,-56.56284 c 4.44273,-4.44278 7.02953,-10.68683 7.03017,-16.96984 6.4e-4,-6.28301 -2.58486,-12.52762 -7.02672,-16.97128 z" />
    <path
       style="fill:#f5f5f5;fill-opacity:1;stroke:#f5f5f5;stroke-width:24;stroke-linecap:butt;stroke-linejoin:round;stroke-miterlimit:4;stroke-opacity:1;stroke-dasharray:none"
       d="M 92.571656,897.56888 154.79072,959.80061 98.216416,1016.3634 35.997358,954.13167 z"
       id="path3794"
       inkscape:connector-curvature="0"
       sodipodi:nodetypes="ccccc" />
    <path
       transform="matrix(0.70703481,0.70717875,-0.70717875,0.70703481,717.98301,181.78437)"
       style="opacity:0.1;fill:#212121;fill-opacity:1;stroke:#212121;stroke-width:24;stroke-linecap:butt;stroke-linejoin:round;stroke-miterlimit:4;stroke-opacity:1;stroke-dasharray:none"
       d="m 64,948.36217 87.99999,0 0,80.00003 -87.99999,0 z"
       id="path3794-1"
       inkscape:connector-curvature="0"
       sodipodi:nodetypes="ccccc"
       clip-path="url(#clipPath3016)" />
    <g
       transform="matrix(4.2111421,4.2119994,-4.2119994,4.2111421,93.921058,888.77492)"
       style="fill:#ff9800;fill-opacity:1;stroke:none"
       id="Icons with numbers">
      <g
         style="fill:#ff9800;fill-opacity:1"
         id="Group"
         transform="translate(-480,-192)">
        <path
           inkscape:connector-curvature="0"
           d="m 487.18719,197.63028 -0.0849,7.11974 -0.3392,0.848 c -0.4594,0.75559 -0.5942,1.30529 -1.6191,1.93778 -1.30579,0.80584 -2.79946,0.35928 -3.32467,-0.45105 -0.52521,-0.81033 -0.20757,-2.23748 1.22381,-2.79027 1.0025,-0.38716 1.27361,-0.38675 1.95684,-0.0894 L 485,198 l 0,-4 10,-2 0,1 0,3 0,8.60046 -6e-5,3e-5 c 0.006,0.71255 -0.4681,1.51544 -1.44951,2.02017 -1.36455,0.70177 -2.79946,0.35928 -3.32467,-0.45105 -0.52521,-0.81033 -0.0869,-1.99248 1.22381,-2.79027 0.70569,-0.42953 0.68001,-0.30189 1.27842,-0.25897 l -0.0847,-6.49623 z"
           id="Rectangle 233"
           style="fill:#ff9800;fill-opacity:1"
           sodipodi:nodetypes="cccsssccccccccsssccc" />
      </g>
    </g>
    <path
       style="fill:#3e2723;fill-opacity:0.2;stroke:none"
       d="M 36 21.1875 C 32.928931 21.18715 29.874631 22.37584 27.53125 24.71875 C 24.681676 27.567762 23.571891 31.494805 24.1875 35.1875 C 24.588593 32.817644 25.701793 30.547846 27.53125 28.71875 C 29.874631 26.37584 32.928931 25.18715 36 25.1875 C 39.071069 25.18784 42.157093 26.37523 44.5 28.71875 C 46.329093 30.548216 47.442502 32.817563 47.84375 35.1875 C 48.459116 31.494929 47.349008 27.56834 44.5 24.71875 C 42.157093 22.37523 39.071069 21.18784 36 21.1875 z M 92.40625 21.1875 C 89.320167 21.2367 86.271665 22.53174 84.09375 24.71875 L 27.5 81.28125 C 25.279381 83.50279 24 86.64018 24 89.78125 C 24 90.449428 24.074969 91.124413 24.1875 91.78125 C 24.603974 89.342085 25.751756 87.030219 27.5 85.28125 L 84.09375 28.71875 C 86.271665 26.53174 89.320167 25.2367 92.40625 25.1875 C 95.606977 25.1467 98.803636 26.45074 101.0625 28.71875 L 163.28125 90.9375 C 165.02949 92.686469 166.17728 94.998332 166.59375 97.4375 C 166.70628 96.780664 166.78125 96.105676 166.78125 95.4375 C 166.78125 92.29642 165.50187 89.15904 163.28125 86.9375 L 101.0625 24.71875 C 98.803635 22.45074 95.606977 21.1467 92.40625 21.1875 z M 12 89.78125 L 12 93.78125 C 11.9989 100.06411 14.589938 106.30609 19.03125 110.75 L 81.25 172.96875 C 85.69259 177.41165 91.93571 179.9994 98.21875 180 C 104.5018 180.0007 110.74385 177.41065 115.1875 172.96875 L 171.75 116.40625 C 176.19273 111.96347 178.78061 105.72051 178.78125 99.4375 C 178.78132 98.768961 178.7452 98.102995 178.6875 97.4375 C 178.20234 103.02655 175.72 108.4362 171.75 112.40625 L 115.1875 168.96875 C 110.74385 173.41055 104.5018 176.0007 98.21875 176 C 91.93571 175.9994 85.69259 173.41155 81.25 168.96875 L 19.03125 106.75 C 14.589938 102.30609 11.9989 96.06411 12 89.78125 z "
       transform="translate(0,860.36218)"
       id="path3796-0-4" />
    <path
       style="fill:#ffffff;fill-opacity:0.2;stroke:none"
       d="M 34.84375 13.21875 C 28.96525 13.51967 23.19619 16.05465 19.03125 20.21875 C 14.58864 24.66045 12.00197 30.90533 12 37.1875 L 12 41.1875 C 12.00196 34.90533 14.58863 28.66045 19.03125 24.21875 C 23.19618 20.05465 28.96525 17.51967 34.84375 17.21875 C 35.23565 17.19865 35.60737 17.21879 36 17.21875 L 92.5625 17.21875 C 98.8453 17.21898 105.08853 19.8075 109.53125 24.25 L 171.75 86.46875 C 175.71923 90.439586 178.20289 95.848593 178.6875 101.4375 C 178.74527 100.77199 178.78118 100.10604 178.78125 99.4375 C 178.78189 93.15449 176.19186 86.91241 171.75 82.46875 L 109.53125 20.25 C 105.08853 15.8075 98.8453 13.21898 92.5625 13.21875 L 36 13.21875 C 35.60737 13.21879 35.23565 13.19865 34.84375 13.21875 z M 24.1875 39.1875 C 23.561064 42.888796 24.674532 46.830203 27.53125 49.6875 C 32.21707 54.37454 39.81323 54.37332 44.5 49.6875 C 47.357285 46.830782 48.470428 42.888923 47.84375 39.1875 C 47.447012 41.568165 46.337169 43.850696 44.5 45.6875 C 39.81323 50.37332 32.21707 50.37454 27.53125 45.6875 C 25.694446 43.850323 24.584394 41.568246 24.1875 39.1875 z M 24.1875 95.78125 C 24.074968 96.440313 24 97.113074 24 97.78125 C 24 100.92233 25.27939 104.02846 27.5 106.25 L 89.71875 168.46875 C 91.9414 170.69865 95.0703 172 98.21875 172 C 101.3672 172 104.4961 170.69865 106.71875 168.46875 L 163.28125 111.90625 C 165.50187 109.68475 166.78125 106.57857 166.78125 103.4375 C 166.78125 102.76932 166.70628 102.09656 166.59375 101.4375 C 166.17727 103.86842 165.02949 106.15728 163.28125 107.90625 L 106.71875 164.46875 C 104.4961 166.69865 101.3672 168 98.21875 168 C 95.0703 168 91.9414 166.69865 89.71875 164.46875 L 27.5 102.25 C 25.751756 100.50103 24.603973 98.212177 24.1875 95.78125 z "
       transform="translate(0,860.36218)"
       id="path3796-0-3" />
    <g
       transform="matrix(4.2111421,4.2119994,-4.2119994,4.2111421,93.921058,888.77492)"
       style="fill:#ff9800;fill-opacity:1;stroke:none"
       id="Icons with numbers-9">
      <g
         style="fill:#ff9800;fill-opacity:1"
         id="Group-0"
         transform="translate(-480,-192)" />
    </g>
    <g
       transform="matrix(4.2111421,4.2119994,-4.2119994,4.2111421,180.73411,980.3274)"
       style="fill:#ff9800;fill-opacity:1;stroke:none"
       id="Icons with numbers-9-1">
      <g
         style="fill:#ff9800;fill-opacity:1"
         id="Group-0-6"
         transform="translate(-480,-192)">
        <path
           style="fill:#ff9800;fill-opacity:1"
           d="M 480.1825,195.81919"
           id="path4773" />
        <path
           style="fill:#ff9800;fill-opacity:1"
           d="M 464.82429,197.23949"
           id="Rectangle 233-1-4" />
      </g>
    </g>
    <g
       transform="matrix(4.2111421,4.2119994,-4.2119994,4.2111421,180.73411,980.32739)"
       style="fill:#ff9800;fill-opacity:1;stroke:none"
       id="Icons with numbers-9-1-0">
      <g
         style="fill:#ff9800;fill-opacity:1"
         id="Group-0-6-1"
         transform="translate(-480,-192)">
        <path
           inkscape:connector-curvature="0"
           style="fill:#ff9800;fill-opacity:1"
           d="M 480.1825,195.81919"
           id="path4773-6" />
        <path
           inkscape:connector-curvature="0"
           style="fill:#ff9800;fill-opacity:1"
           d="M 464.82429,197.23949"
           id="Rectangle 233-1-4-8" />
      </g>
    </g>
    <path
       style="fill:url(#radialGradient4821);fill-opacity:1;fill-rule:evenodd;stroke:none"
       d="M -192 -192 L -192 192 L 65.96875 192 L 36.3125 104.46875 C 38.177681 108.18721 41.960407 111.66772 47.28125 113.375 C 53.54702 115.38548 58.931941 113.97016 61.90625 110.9375 L 94.75 78.125 L 135.1875 105.0625 L 105.6875 134.5625 C 104.06263 130.43268 100.07113 126.44036 94.21875 124.5625 C 85.516623 121.77031 78.513876 125.53165 77.3125 131.15625 C 76.111124 136.78085 80.704081 144.27027 89.40625 147.0625 C 95.665029 149.07071 101.02401 147.68217 104 144.65625 L 140.25 108.4375 L 152.875 95.8125 L 157.09375 91.59375 L 106.65625 57.96875 L 106.75 57.875 L 192 105.6875 L 192 -192 L -192 -192 z "
       id="rect4652"
       transform="translate(0,860.36218)" />
  </g>
</svg>
