<?xml version="1.0" encoding="UTF-8" standalone="no"?>
<!-- Created with Inkscape (http://www.inkscape.org/) -->

<svg
   xmlns:dc="http://purl.org/dc/elements/1.1/"
   xmlns:cc="http://creativecommons.org/ns#"
   xmlns:rdf="http://www.w3.org/1999/02/22-rdf-syntax-ns#"
   xmlns:svg="http://www.w3.org/2000/svg"
   xmlns="http://www.w3.org/2000/svg"
   xmlns:sodipodi="http://sodipodi.sourceforge.net/DTD/sodipodi-0.dtd"
   xmlns:inkscape="http://www.inkscape.org/namespaces/inkscape"
   width="512"
   height="512"
   id="svg2"
   version="1.1"
   inkscape:version="0.48.4 r9939"
   sodipodi:docname="icon_3.svg">
  <defs
     id="defs4">
    <clipPath
       clipPathUnits="userSpaceOnUse"
       id="clipPath3016">
      <rect
         style="fill:#3e2723;fill-opacity:0.4;fill-rule:evenodd;stroke:none"
         id="rect3018"
         width="176"
         height="64"
         x="0"
         y="924.36218" />
    </clipPath>
    <mask
       maskUnits="userSpaceOnUse"
       id="mask4023">
      <rect
         style="fill:#fafafa;fill-opacity:1;fill-rule:evenodd;stroke:#fafafa;stroke-width:1.81023645;stroke-linecap:butt;stroke-linejoin:round;stroke-miterlimit:4;stroke-opacity:1;stroke-dasharray:none"
         id="rect4025"
         width="174.18976"
         height="62.189766"
         x="0.90511823"
         y="0.90509295" />
    </mask>
  </defs>
  <sodipodi:namedview
     id="base"
     pagecolor="#ffffff"
     bordercolor="#666666"
     borderopacity="1.0"
     inkscape:pageopacity="0.0"
     inkscape:pageshadow="2"
     inkscape:zoom="1.4"
     inkscape:cx="127.27684"
     inkscape:cy="254.15066"
     inkscape:document-units="px"
     inkscape:current-layer="layer1"
     showgrid="false"
     showguides="true"
     inkscape:guide-bbox="true"
     inkscape:window-width="1600"
     inkscape:window-height="850"
     inkscape:window-x="0"
     inkscape:window-y="149"
     inkscape:window-maximized="1" />
  <metadata
     id="metadata7">
    <rdf:RDF>
      <cc:Work
         rdf:about="">
        <dc:format>image/svg+xml</dc:format>
        <dc:type
           rdf:resource="http://purl.org/dc/dcmitype/StillImage" />
        <dc:title></dc:title>
      </cc:Work>
    </rdf:RDF>
  </metadata>
  <g
     inkscape:label="Layer 1"
     inkscape:groupmode="layer"
     id="layer1"
     transform="translate(0,-540.36218)">
    <rect
       style="fill:#000000;fill-opacity:1;fill-rule:evenodd;stroke:none"
       id="rect4222"
       width="512"
       height="512"
       x="0"
       y="540.36218" />
    <path
       id="path3796"
       style="fill:#f44336;fill-opacity:1;stroke:none"
       d="m 117.32098,796.6954 c 0,17.67312 -14.32689,32 -32.000001,32 -17.673112,0 -32.000003,-14.32688 -32.000003,-32 0,-17.67312 14.326891,-32 32.000003,-32 17.673111,0 32.000001,14.32688 32.000001,32 z m 74.66667,-170.66666 c -16.75413,0.002 -33.40382,6.90226 -45.25001,18.75 L 40.070976,751.4454 c -11.843277,11.84819 -18.737643,28.49755 -18.737643,45.24995 0,16.75243 6.894366,33.40171 18.737643,45.24997 L 146.73764,948.61204 c 11.84617,11.84774 28.49586,18.74694 45.25001,18.75014 l 234.66664,0 c 16.7547,-10e-4 33.4056,-6.89974 45.25296,-18.74694 11.84736,-11.84746 18.74536,-28.4984 18.74704,-45.25312 l 0,-213.33338 c -0.002,-16.7547 -6.89968,-33.4056 -18.74704,-45.25296 -11.84736,-11.84736 -28.49826,-18.74536 -45.25296,-18.74704 z"
       inkscape:connector-curvature="0" />
    <g
       id="g3228"
       style="fill:#fafafa;fill-opacity:1;stroke:#fafafa;stroke-opacity:1"
       transform="matrix(2.6666667,0,0,2.6666667,21.320979,-1839.2704)">
      <path
         style="font-size:medium;font-style:normal;font-variant:normal;font-weight:normal;font-stretch:normal;text-indent:0;text-align:start;text-decoration:none;line-height:normal;letter-spacing:normal;word-spacing:normal;text-transform:none;direction:ltr;block-progression:tb;writing-mode:lr-tb;text-anchor:start;baseline-shift:baseline;color:#000000;fill:#fafafa;fill-opacity:1;fill-rule:nonzero;stroke:none;stroke-width:24;marker:none;visibility:visible;display:inline;overflow:visible;enable-background:accumulate;font-family:Sans;-inkscape-font-specification:Sans"
         d="m 64,936.36218 c -3.141507,3.1e-4 -6.263549,1.29369 -8.48493,3.51507 -2.221381,2.22138 -3.514756,5.34342 -3.51507,8.48493 l 0,80.00002 c 3.14e-4,3.1415 1.293689,6.2635 3.51507,8.4849 2.221381,2.2214 5.343423,3.5148 8.48493,3.5151 l 88,0 c 3.14151,-3e-4 6.26355,-1.2937 8.48493,-3.5151 2.22138,-2.2214 3.51476,-5.3434 3.51507,-8.4849 l 0,-80.00002 c -3.1e-4,-3.14151 -1.29369,-6.26355 -3.51507,-8.48493 -2.22138,-2.22138 -5.34342,-3.51476 -8.48493,-3.51507 z"
         id="path3794"
         inkscape:connector-curvature="0"
         sodipodi:nodetypes="csccsccsccscc" />
    </g>
    <path
       style="font-size:medium;font-style:normal;font-variant:normal;font-weight:normal;font-stretch:normal;text-indent:0;text-align:start;text-decoration:none;line-height:normal;letter-spacing:normal;word-spacing:normal;text-transform:none;direction:ltr;block-progression:tb;writing-mode:lr-tb;text-anchor:start;baseline-shift:baseline;opacity:0.10000000000000001;color:#000000;fill:#212121;fill-opacity:0.09803922;fill-rule:nonzero;stroke:none;stroke-width:24;marker:none;visibility:visible;display:inline;overflow:visible;enable-background:accumulate;font-family:Sans;-inkscape-font-specification:Sans"
       d="m 64,936.375 c -3.141507,3.1e-4 -6.263549,1.29369 -8.48493,3.51507 -2.221381,2.22138 -3.514756,5.34342 -3.51507,8.48493 l 0,80 c 3.14e-4,3.1415 1.293689,6.2635 3.51507,8.4849 2.221381,2.2214 5.343423,3.5148 8.48493,3.5151 l 88,0 c 3.14151,-3e-4 6.26355,-1.2937 8.48493,-3.5151 2.22138,-2.2214 3.51476,-5.3434 3.51507,-8.4849 l 0,-80 c -3.1e-4,-3.14151 -1.29369,-6.26355 -3.51507,-8.48493 -2.22138,-2.22138 -5.34342,-3.51476 -8.48493,-3.51507 z"
       clip-path="url(#clipPath3016)"
       id="path3794-1"
       inkscape:connector-curvature="0"
       sodipodi:nodetypes="csccsccsccscc"
       transform="matrix(2.6666667,0,0,2.6666667,21.320979,-1839.2704)" />
    <g
       style="fill:#fafafa;fill-opacity:1;stroke:#fafafa;stroke-opacity:1"
       id="g4005" />
    <g
       id="g4136"
       style="fill:#595261;fill-opacity:1;stroke:none"
       transform="matrix(15.882828,0,0,15.882828,178.027,671.23691)">
      <g
         transform="translate(-480,-192)"
         id="g4138"
         style="fill:#595261;fill-opacity:1" />
    </g>
    <g
       transform="matrix(15.882828,0,0,15.882828,178.027,669.58714)"
       style="fill:#502800;fill-opacity:1;stroke:none"
       id="g4155">
      <g
         style="fill:#502800;fill-opacity:1"
         id="g4157"
         transform="translate(-480,-192)" />
    </g>
    <g
       id="g4149"
       style="fill:#2b2800;fill-opacity:1;stroke:none"
       transform="matrix(15.882828,0,0,15.882828,178.027,668.58714)">
      <g
         transform="translate(-480,-192)"
         id="g4151"
         style="fill:#2b2800;fill-opacity:1" />
    </g>
    <path
       style="fill:#3e2723;fill-opacity:0.2;stroke:none"
       d="M 85.3125 222.34375 C 67.639388 222.34375 53.3125 236.67063 53.3125 254.34375 C 53.3125 254.68352 53.333237 255.00653 53.34375 255.34375 C 53.870226 238.1317 67.972761 224.34375 85.3125 224.34375 C 102.65208 224.34375 116.75453 238.13192 117.28125 255.34375 C 117.29177 255.00636 117.3125 254.6837 117.3125 254.34375 C 117.3125 236.67063 102.98561 222.34375 85.3125 222.34375 z M 21.375 255.34375 C 21.369606 255.67544 21.34375 256.01194 21.34375 256.34375 C 21.34375 273.09618 28.219223 289.74549 40.0625 301.59375 L 146.75 408.25 C 158.59617 420.09774 175.24585 426.9968 192 427 L 426.65625 427 C 443.41095 426.999 460.05889 420.0972 471.90625 408.25 C 483.75361 396.40254 490.65457 379.75472 490.65625 363 L 490.65625 361 C 490.65457 377.75472 483.75361 394.40254 471.90625 406.25 C 460.05889 418.0972 443.41095 424.999 426.65625 425 L 192 425 C 175.24585 424.9968 158.59617 418.09774 146.75 406.25 L 40.0625 299.59375 C 28.456142 287.98251 21.644556 271.75517 21.375 255.34375 z "
       transform="translate(0,540.36218)"
       id="path4165" />
    <path
       style="fill:#ffffff;fill-opacity:0.2;stroke:none"
       d="M 192 85.65625 C 175.24587 85.65825 158.59619 92.55851 146.75 104.40625 L 40.0625 211.09375 C 28.219223 222.94194 21.34375 239.59135 21.34375 256.34375 C 21.34375 256.67887 21.369498 257.00875 21.375 257.34375 C 21.641949 240.92896 28.453796 224.70727 40.0625 213.09375 L 146.75 106.40625 C 158.59619 94.55851 175.24587 87.65825 192 87.65625 L 426.65625 87.65625 C 443.41095 87.65793 460.05889 94.55889 471.90625 106.40625 C 483.75361 118.25361 490.65425 134.90155 490.65625 151.65625 L 490.65625 149.65625 C 490.65425 132.90155 483.75361 116.25361 471.90625 104.40625 C 460.05889 92.55889 443.41095 85.65793 426.65625 85.65625 L 192 85.65625 z M 53.34375 257.34375 C 53.333628 257.67467 53.3125 258.01038 53.3125 258.34375 C 53.3125 276.01687 67.639388 290.34375 85.3125 290.34375 C 102.98561 290.34375 117.3125 276.01687 117.3125 258.34375 C 117.3125 258.01022 117.29138 257.67483 117.28125 257.34375 C 116.74467 274.54668 102.64566 288.34375 85.3125 288.34375 C 67.979161 288.34375 53.88006 274.54692 53.34375 257.34375 z "
       transform="translate(0,540.36218)"
       id="path4168" />
    <g
       transform="matrix(15.882828,0,0,15.882828,178.027,669.58714)"
       style="fill:#282800;fill-opacity:1;stroke:none"
       id="g4179">
      <g
         style="fill:#282800;fill-opacity:1"
         id="g4181"
         transform="translate(-480,-192)" />
    </g>
    <g
       transform="matrix(15.882828,0,0,15.882828,178.027,671.58714)"
       style="fill:#113100;fill-opacity:1;stroke:none"
       id="g4192">
      <g
         style="fill:#113100;fill-opacity:1"
         id="g4194"
         transform="translate(-480,-192)" />
    </g>
    <g
       transform="matrix(2.6666667,0,0,2.6666667,21.320979,-1839.2704)"
       style="fill:#fa20fa;fill-opacity:1;stroke:#fafafa;stroke-opacity:1"
       id="g4213">
      <path
         style="font-size:medium;font-style:normal;font-variant:normal;font-weight:normal;font-stretch:normal;text-indent:0;text-align:start;text-decoration:none;line-height:normal;letter-spacing:normal;word-spacing:normal;text-transform:none;direction:ltr;block-progression:tb;writing-mode:lr-tb;text-anchor:start;baseline-shift:baseline;color:#000000;fill:#ffffff;fill-opacity:0.2;fill-rule:nonzero;stroke:none;stroke-width:24;marker:none;visibility:visible;display:inline;overflow:visible;enable-background:accumulate;font-family:Sans;-inkscape-font-specification:Sans"
         d="M 192 117.34375 C 183.62265 117.34458 175.29868 120.79507 169.375 126.71875 C 163.45132 132.64243 160.00084 140.96639 160 149.34375 L 160 151.34375 C 160.00084 142.96639 163.45131 134.64243 169.375 128.71875 C 175.29869 122.79507 183.62264 119.34458 192 119.34375 L 426.65625 119.34375 C 435.03362 119.34458 443.35756 122.79507 449.28125 128.71875 C 455.20494 134.64243 458.65542 142.96639 458.65625 151.34375 L 458.65625 149.34375 C 458.65542 140.96639 455.20493 132.64243 449.28125 126.71875 C 443.35757 120.79507 435.03361 117.34458 426.65625 117.34375 L 192 117.34375 z "
         transform="matrix(0.375,0,0,0.375,-7.995367,892.36221)"
         id="path4215" />
    </g>
    <g
       id="g4217"
       style="fill:#3520fa;fill-opacity:1;stroke:#fafafa;stroke-opacity:1"
       transform="matrix(2.6666697,0,0,2.6666667,21.320825,-1837.27)" />
    <g
       transform="matrix(2.6666667,0,0,2.6666667,21.320979,-1839.2704)"
       style="fill:#b84147;fill-opacity:1;stroke:#fafafa;stroke-opacity:1"
       id="g4224">
      <path
         style="font-size:medium;font-style:normal;font-variant:normal;font-weight:normal;font-stretch:normal;text-indent:0;text-align:start;text-decoration:none;line-height:normal;letter-spacing:normal;word-spacing:normal;text-transform:none;direction:ltr;block-progression:tb;writing-mode:lr-tb;text-anchor:start;baseline-shift:baseline;color:#000000;fill:#212121;fill-opacity:0.2;fill-rule:nonzero;stroke:none;stroke-width:24;marker:none;visibility:visible;display:inline;overflow:visible;enable-background:accumulate;font-family:Sans;-inkscape-font-specification:Sans"
         d="M 160 360.65625 L 160 362.65625 C 160.00084 371.03358 163.45132 379.35752 169.375 385.28125 C 175.29868 391.20498 183.62265 394.65545 192 394.65625 L 426.65625 394.65625 C 435.03361 394.65545 443.35757 391.20498 449.28125 385.28125 C 455.20493 379.35752 458.65542 371.03358 458.65625 362.65625 L 458.65625 360.65625 C 458.65542 369.03358 455.20493 377.35752 449.28125 383.28125 C 443.35757 389.20498 435.03361 392.65545 426.65625 392.65625 L 192 392.65625 C 183.62265 392.65545 175.29868 389.20498 169.375 383.28125 C 163.45132 377.35752 160.00084 369.03358 160 360.65625 z "
         transform="matrix(0.375,0,0,0.375,-7.995367,892.36221)"
         id="path4226" />
    </g>
    <g
       id="g4228"
       style="fill:#b8e407;fill-opacity:0.13942309;stroke:#fafafa;stroke-opacity:1"
       transform="matrix(2.6666667,0,0,2.6666667,21.320979,-1841.2701)" />
    <rect
       style="fill:#ffffff;fill-opacity:0.2;fill-rule:evenodd;stroke:none"
       id="rect4233"
       width="298.66699"
       height="2"
       x="159.98801"
       y="796.36218" />
    <rect
       y="794.36218"
       x="159.98801"
       height="2"
       width="298.66699"
       id="rect4235"
       style="fill:#212121;fill-opacity:0.09803922;fill-rule:evenodd;stroke:none" />
    <g
       transform="matrix(15.882828,0,0,15.882828,178.027,669.58708)"
       style="fill:#ff9800;fill-opacity:1;stroke:none"
       id="Icons with numbers">
      <g
         style="fill:#ff9800;fill-opacity:1"
         id="Group"
         transform="translate(-480,-192)">
        <path
           inkscape:connector-curvature="0"
           d="m 486,197.84091 0,7.79814 -9e-5,-5e-5 c 0.007,0.71315 -0.46697,1.51728 -1.44948,2.02257 -1.36455,0.70177 -2.79946,0.35928 -3.32467,-0.45105 -0.52521,-0.81033 -0.12306,-2.05516 1.22381,-2.79027 0.53168,-0.29019 0.95856,-0.36794 1.65491,-0.36794 l 0,-9.84891 10.89552,-2.16249 0,1 0,3 0,8.60046 -6e-5,3e-5 c 0.006,0.71255 -0.4681,1.51544 -1.44951,2.02017 -1.36455,0.70177 -2.79946,0.35928 -3.32467,-0.45105 -0.52521,-0.81033 -0.16032,-2.12797 1.22381,-2.79027 0.23929,-0.1145 0.84393,-0.36892 1.72856,-0.36892 l 0,-6.64624 z"
           id="Rectangle 233"
           style="fill:#ff9800;fill-opacity:1"
           sodipodi:nodetypes="cccssscccccccsssccc" />
      </g>
    </g>
    <g
       id="g4186"
       style="fill:#ffffff;fill-opacity:0.2;stroke:none"
       transform="matrix(15.882828,0,0,15.882828,178.027,669.58708)">
      <g
         transform="translate(-480,-192)"
         id="g4188"
         style="fill:#ffffff;fill-opacity:0.2">
        <path
           style="fill:#ffffff;fill-opacity:0.2"
           d="M 416.28125 129.875 L 243.21875 164.21875 L 243.21875 166.21875 L 416.28125 131.875 L 416.28125 129.875 z M 387.34375 304.75 C 373.29332 304.75 363.6756 308.80642 359.875 310.625 C 343.91691 318.26088 336.49483 331.36439 336.8125 342.90625 C 337.35298 331.87755 344.83214 319.82294 359.875 312.625 C 363.6756 310.80642 373.29332 306.75 387.34375 306.75 L 387.34375 304.75 z M 243.21875 320.65625 C 232.15874 320.65625 225.38208 321.89096 216.9375 326.5 C 201.09678 335.14573 193.49746 348.22144 194 359.65625 C 194.4153 348.72459 202.01717 336.64339 216.9375 328.5 C 225.38208 323.89096 232.15874 322.65625 243.21875 322.65625 L 243.21875 320.65625 z "
           transform="matrix(0.06296108,0,0,0.06296108,468.79123,183.86386)"
           id="path4190" />
      </g>
    </g>
    <g
       id="g4173"
       style="fill:#ff2800;fill-opacity:1;stroke:none"
       transform="matrix(15.882828,0,0,15.882828,178.027,671.58714)">
      <g
         transform="translate(-480,-192)"
         id="g4175"
         style="fill:#ff2800;fill-opacity:1">
        <path
           style="fill:#bf360c;fill-opacity:0.2"
           d="m 493.17881,196.15331 -7.17953,1.4363 0,0.12592 7.17953,-1.4363 0,-0.12592 z m 1.82194,8.2361 c 0.006,0.71255 -0.46867,1.51593 -1.45008,2.02066 -1.36455,0.70177 -2.79992,0.35976 -3.32513,-0.45057 -0.14396,-0.22211 -0.22068,-0.4831 -0.22823,-0.7575 -0.0157,0.3204 0.0624,0.62757 0.22823,0.88342 0.52521,0.81033 1.96058,1.15234 3.32513,0.45057 0.98141,-0.50473 1.45608,-1.30811 1.45008,-2.02066 l 0,-0.12592 z m -9.00147,0.99754 c 0.007,0.71315 -0.46559,1.51733 -1.4481,2.02262 -1.36455,0.70177 -2.79993,0.35977 -3.32514,-0.45056 -0.13629,-0.21029 -0.20927,-0.45011 -0.22036,-0.70241 -0.0113,0.29854 0.0615,0.58318 0.22036,0.82833 0.52521,0.81033 1.96059,1.15233 3.32514,0.45056 0.98251,-0.50528 1.4551,-1.30947 1.4481,-2.02262 l 0,-0.12592 z"
           id="path4177"
           inkscape:connector-curvature="0" />
      </g>
    </g>
  </g>
</svg>
